<?xml version="1.0" encoding="UTF-8" standalone="no"?>
<!-- Created with Inkscape (http://www.inkscape.org/) -->

<svg
   width="143.62204"
   height="37.795269"
   viewBox="0 0 37.999983 9.999995"
   version="1.1"
   id="svg1"
   inkscape:version="1.3.2 (091e20e, 2023-11-25, custom)"
   sodipodi:docname="minecraft-button2.svg"
   inkscape:export-filename="minecraft-button2.svg"
   inkscape:export-xdpi="96"
   inkscape:export-ydpi="96"
   xmlns:inkscape="http://www.inkscape.org/namespaces/inkscape"
   xmlns:sodipodi="http://sodipodi.sourceforge.net/DTD/sodipodi-0.dtd"
   xmlns="http://www.w3.org/2000/svg"
   xmlns:svg="http://www.w3.org/2000/svg">
  <sodipodi:namedview
     id="namedview1"
     pagecolor="#505050"
     bordercolor="#ffffff"
     borderopacity="1"
     inkscape:showpageshadow="0"
     inkscape:pageopacity="0"
     inkscape:pagecheckerboard="1"
     inkscape:deskcolor="#505050"
     inkscape:document-units="mm"
     showgrid="true"
     inkscape:zoom="16"
     inkscape:cx="1.96875"
     inkscape:cy="27.53125"
     inkscape:window-width="1920"
     inkscape:window-height="1001"
     inkscape:window-x="-9"
     inkscape:window-y="-9"
     inkscape:window-maximized="1"
     inkscape:current-layer="g57-08-5-2">
    <inkscape:grid
       id="grid1"
       units="mm"
       originx="-15.027074"
       originy="-44.934918"
       spacingx="0.99999998"
       spacingy="1"
       empcolor="#0099e5"
       empopacity="0.30196078"
       color="#0099e5"
       opacity="0.14901961"
       empspacing="5"
       dotted="false"
       gridanglex="30"
       gridanglez="30"
       visible="true" />
  </sodipodi:namedview>
  <defs
     id="defs1" />
  <g
     inkscape:label="Capa 1"
     inkscape:groupmode="layer"
     id="layer1"
     transform="translate(-15.027074,-44.934919)">
    <g
       id="g57-08-5"
       transform="translate(-16.472926,32.434919)"
       style="stroke:#000000;stroke-width:1;stroke-dasharray:none;stroke-opacity:1">
      <rect
         style="fill:#ff791a;fill-opacity:1;fill-rule:evenodd;stroke:#000000;stroke-width:1;stroke-dasharray:none;stroke-opacity:1"
         id="rect3-6-85-7-6"
         width="35"
         height="7"
         x="33"
         y="-21.999998"
         transform="scale(1,-1)" />
      <rect
         style="fill:#ffd953;fill-opacity:1;fill-rule:evenodd;stroke:#000000;stroke-width:1;stroke-dasharray:none;stroke-opacity:1"
         id="rect3-0-3-83-4"
         width="35"
         height="7"
         x="33"
         y="-20"
         transform="scale(1,-1)" />
      <rect
         style="fill:#ffa41f;fill-opacity:1;fill-rule:evenodd;stroke:#000000;stroke-width:1;stroke-dasharray:none;stroke-opacity:1"
         id="rect3-9-9-3"
         width="35"
         height="7"
         x="33"
         y="-20.999998"
         transform="scale(1,-1)" />
      <rect
         style="fill:#ff791a;fill-opacity:1;fill-rule:evenodd;stroke:#000000;stroke-width:1;stroke-dasharray:none;stroke-opacity:1"
         id="rect3-3-4-4-2"
         width="1"
         height="7"
         x="68"
         y="-21"
         transform="scale(1,-1)" />
      <rect
         style="fill:#ffc42b;fill-opacity:1;fill-rule:evenodd;stroke:#000000;stroke-width:1;stroke-dasharray:none;stroke-opacity:1"
         id="rect3-3-4-9-4-3"
         width="1"
         height="7"
         x="32"
         y="-21"
         transform="scale(1,-1)"
         inkscape:label="rect3-3-4-9-4-3" />
    </g>
    <g
       id="g57-08-5-2"
       transform="translate(-16.472926,32.434919)">
      <rect
         style="fill:#ff791a;fill-opacity:1;fill-rule:evenodd;stroke-width:1.56529"
         id="rect3-6-85-7-6-7"
         width="35"
         height="7"
         x="33"
         y="-21.999998"
         transform="scale(1,-1)" />
      <rect
         style="fill:#ffd953;fill-opacity:1;fill-rule:evenodd;stroke-width:1.56529"
         id="rect3-0-3-83-4-5"
         width="35"
         height="7"
         x="33"
         y="-20"
         transform="scale(1,-1)" />
      <rect
         style="fill:#ff791a;fill-opacity:1;fill-rule:evenodd;stroke-width:0.324046"
         id="rect3-3-4-4-2-0"
         width="1.4999981"
         height="7"
         x="67.5"
         y="-21"
         transform="scale(1,-1)" />
      <rect
         style="fill:#ffc42b;fill-opacity:1;fill-rule:evenodd;stroke-width:0.321109"
         id="rect3-3-4-9-4-3-2"
         width="1.4729272"
         height="7"
         x="32"
         y="-21"
         transform="scale(1,-1)"
         inkscape:label="rect3-3-4-9-4-3" />
      <rect
         style="fill:#ffa41f;fill-opacity:1;fill-rule:evenodd;stroke-width:1.56517;stroke-dasharray:none"
         id="rect3-9-9-3-9"
         width="35"
         height="7"
         x="33"
         y="-20.999998"
         transform="scale(1,-1)" />
    </g>
    <path
       d="m 29.98778,50.975553 v -1.975551 h 0.740831 v 2.469438 h -1.728605 v -0.987776 h 0.74083 v 0.493889 z m 1.093607,0.493887 v -2.469438 h 0.740831 v 1.975551 h 0.246943 v -1.975551 h 0.740831 v 2.469438 z m 3.069156,-0.493887 v -0.987775 h 0.740831 v 1.481662 h -1.728605 v -2.469438 h 1.728605 v 0.493887 H 33.9036 v 1.481664 z m 1.093607,0.493887 v -2.469438 h 1.728606 v 2.469438 h -0.740831 v -0.987776 h -0.246943 v 0.987776 z m 0.987775,-1.481662 v -0.493889 h -0.246943 v 0.493889 z m 1.093607,1.481662 v -2.469438 h 1.728605 v 0.987776 h -0.246944 v 0.246943 h 0.246944 v 1.234719 h -0.74083 v -0.987776 h -0.246944 v 0.987776 z m 0.987775,-1.481662 v -0.493889 h -0.246944 v 0.493889 z"
       id="text59-9"
       style="font-size:3.66754px;font-family:Minecraft;-inkscape-font-specification:Minecraft;fill:#ff791a;stroke-width:1.24901"
       aria-label="JUGAR" />
    <path
       d="m 29.987777,50.675749 v -1.975551 h 0.740831 v 2.469439 h -1.728607 v -0.987775 h 0.740832 v 0.493887 z m 1.093609,0.493888 v -2.469439 h 0.740832 v 1.975551 h 0.246943 v -1.975551 h 0.740832 v 2.469439 z m 3.06916,-0.493888 v -0.987775 h 0.740832 v 1.481663 h -1.728607 v -2.469439 h 1.728607 v 0.493888 h -0.987776 v 1.481663 z m 1.09361,0.493888 v -2.469439 h 1.728607 v 2.469439 h -0.740831 v -0.987775 h -0.246944 v 0.987775 z m 0.987776,-1.481663 v -0.493888 h -0.246944 v 0.493888 z m 1.093609,1.481663 v -2.469439 h 1.728606 v 0.987776 h -0.246944 v 0.246944 h 0.246944 v 1.234719 h -0.740831 v -0.987775 h -0.246944 v 0.987775 z m 0.987775,-1.481663 v -0.493888 h -0.246944 v 0.493888 z"
       id="text59-8-5"
       style="font-size:3.52777px;font-family:Minecraft;-inkscape-font-specification:Minecraft;fill:#ffffff;stroke-width:1.249"
       aria-label="JUGAR" />
  </g>
</svg>
